<?xml version="1.0" standalone="no"?>
<!DOCTYPE svg PUBLIC "-//W3C//DTD SVG 20010904//EN"
 "http://www.w3.org/TR/2001/REC-SVG-20010904/DTD/svg10.dtd">
<svg version="1.0" xmlns="http://www.w3.org/2000/svg"
 width="100.000000pt" height="100.000000pt" viewBox="0 0 100.000000 100.000000"
 preserveAspectRatio="xMidYMid meet">
<metadata>
Created by potrace 1.14, written by Peter Selinger 2001-2017
</metadata>
<g transform="translate(0.000000,100.000000) scale(0.100000,-0.100000)"
fill="#000000" stroke="none">
<path d="M68 693 c-4 -7 -3 -314 1 -365 1 -13 8 -17 24 -14 22 3 22 5 22 154
-1 83 2 149 5 146 3 -3 28 -72 55 -152 44 -128 53 -147 72 -148 19 -1 27 13
61 110 22 61 46 131 53 156 14 43 14 40 19 -110 5 -152 5 -155 28 -156 l22 -1
0 193 0 194 -29 0 c-17 0 -33 -6 -38 -12 -4 -7 -31 -80 -60 -163 -29 -85 -54
-143 -57 -135 -3 8 -28 80 -54 160 l-49 145 -35 3 c-20 2 -38 -1 -40 -5z"/>
<path d="M480 693 c0 -5 22 -91 48 -193 47 -179 49 -184 75 -185 17 -1 28 4
31 14 3 9 21 74 41 146 20 72 39 139 42 150 4 12 21 -35 47 -130 53 -191 51
-185 77 -180 12 2 23 6 24 7 2 2 25 86 52 188 48 176 49 185 30 188 -11 2 -23
-2 -28 -9 -8 -14 -72 -265 -72 -286 -1 -38 -15 1 -44 115 -44 176 -47 182 -82
182 -29 0 -29 0 -70 -152 -23 -84 -44 -157 -45 -163 -2 -5 -10 22 -19 60 -63
274 -57 255 -83 255 -13 0 -24 -3 -24 -7z"/>
</g>
</svg>
